<svg width="28" height="28" viewBox="0 0 28 28" fill="none" xmlns="http://www.w3.org/2000/svg">
<path fill-rule="evenodd" clip-rule="evenodd" d="M0 7.48837C0 3.35265 3.69652 0 8.25641 0H19.7436C24.3034 0 28 3.35265 28 7.48837V20.5116C28 24.6473 24.3034 28 19.7436 28H8.25641C3.69652 28 0 24.6473 0 20.5116V7.48837ZM8.25641 1.95349C4.88606 1.95349 2.15385 4.43154 2.15385 7.48837V20.5116C2.15385 23.5684 4.88606 26.0465 8.25641 26.0465H19.7436C23.1139 26.0465 25.8462 23.5684 25.8462 20.5116V7.48837C25.8462 4.43154 23.1139 1.95349 19.7436 1.95349H8.25641Z" fill="black"/>
<path fill-rule="evenodd" clip-rule="evenodd" d="M7.17947 9.05142C7.17947 8.51197 7.66163 8.07468 8.2564 8.07468H19.7436C20.3383 8.07468 20.8205 8.51197 20.8205 9.05142C20.8205 9.59086 20.3383 10.0282 19.7436 10.0282H8.2564C7.66163 10.0282 7.17947 9.59086 7.17947 9.05142Z" fill="black"/>
<path fill-rule="evenodd" clip-rule="evenodd" d="M7.17947 14.2607C7.17947 13.7213 7.66163 13.284 8.2564 13.284H19.7436C20.3383 13.284 20.8205 13.7213 20.8205 14.2607C20.8205 14.8002 20.3383 15.2375 19.7436 15.2375H8.2564C7.66163 15.2375 7.17947 14.8002 7.17947 14.2607Z" fill="black"/>
<path fill-rule="evenodd" clip-rule="evenodd" d="M8.61539 19.47C8.61539 18.9306 9.09755 18.4933 9.69231 18.4933H18.3077C18.9024 18.4933 19.3846 18.9306 19.3846 19.47C19.3846 20.0095 18.9024 20.4468 18.3077 20.4468H9.69231C9.09755 20.4468 8.61539 20.0095 8.61539 19.47Z" fill="black"/>
</svg>
