<svg width="10" height="10" viewBox="0 0 10 10" fill="none" xmlns="http://www.w3.org/2000/svg">
<path d="M8.88338 5.15278C8.88338 5.04565 8.92592 4.94291 9.00164 4.86716C9.07737 4.7914 9.18007 4.74885 9.28717 4.74885C9.39426 4.74885 9.49696 4.7914 9.57269 4.86716C9.64841 4.94291 9.69096 5.04565 9.69096 5.15278V9.59609C9.69096 9.70322 9.64841 9.80596 9.57269 9.88171C9.49696 9.95746 9.39426 10 9.28717 10H0.40379C0.296698 10 0.193993 9.95746 0.118267 9.88171C0.0425421 9.80596 0 9.70322 0 9.59609V0.709479C0 0.602348 0.0425421 0.499605 0.118267 0.423852C0.193993 0.3481 0.296698 0.305542 0.40379 0.305542H4.84548C4.95257 0.305542 5.05528 0.3481 5.131 0.423852C5.20673 0.499605 5.24927 0.602348 5.24927 0.709479C5.24927 0.816609 5.20673 0.919352 5.131 0.995105C5.05528 1.07086 4.95257 1.11342 4.84548 1.11342H0.80758V9.19215H8.88338V5.15278Z" fill="#1E1E1E" fill-opacity="0.7"/>
<path d="M4.31491 5.68596L4.98116 5.59063L9.07398 1.49713C9.11254 1.45987 9.14331 1.4153 9.16447 1.36602C9.18563 1.31674 9.19677 1.26373 9.19724 1.2101C9.1977 1.15646 9.18748 1.10327 9.16718 1.05363C9.14688 1.00399 9.1169 0.958888 9.07898 0.920961C9.04107 0.883034 8.99599 0.853041 8.94636 0.832731C8.89674 0.81242 8.84357 0.8022 8.78995 0.802666C8.73634 0.803132 8.68335 0.814275 8.63409 0.835445C8.58482 0.856615 8.54027 0.887388 8.50302 0.925968L4.4094 5.01946L4.3141 5.68596H4.31491ZM9.64494 0.353994C9.75751 0.466531 9.8468 0.600154 9.90773 0.747228C9.96866 0.894303 10 1.05194 10 1.21115C10 1.37035 9.96866 1.52799 9.90773 1.67507C9.8468 1.82214 9.75751 1.95576 9.64494 2.0683L5.45764 6.25712C5.39589 6.31912 5.31568 6.35938 5.22909 6.37184L3.89659 6.5625C3.83449 6.57142 3.77116 6.56574 3.71164 6.54592C3.65211 6.5261 3.59802 6.49267 3.55366 6.44829C3.5093 6.40391 3.47589 6.34981 3.45607 6.29026C3.43625 6.23071 3.43058 6.16737 3.4395 6.10524L3.63008 4.77225C3.64232 4.68573 3.68227 4.60551 3.74395 4.54362L7.93206 0.354802C8.15923 0.127622 8.46729 0 8.7885 0C9.10971 0 9.41777 0.127622 9.64494 0.354802V0.353994Z" fill="#1E1E1E" fill-opacity="0.7"/>
</svg>
