<svg width="28" height="28" viewBox="0 0 28 28" fill="none" xmlns="http://www.w3.org/2000/svg">
<path d="M27.8668 12.7936L25.4281 8.04297C25.201 7.59944 24.6102 7.40476 24.1124 7.60605C23.6125 7.80733 23.3919 8.33014 23.6194 8.77235L25.2915 12.0303H18.831C18.2824 12.0303 17.8372 12.425 17.8372 12.9112C17.8372 13.3975 18.2824 13.7921 18.831 13.7921H25.6333L23.6184 17.7174C23.3909 18.1596 23.6115 18.6824 24.1114 18.8837C24.245 18.9369 24.3846 18.9629 24.5223 18.9629C24.8999 18.9629 25.2607 18.7709 25.4271 18.4467L27.8812 13.6657C27.9329 13.5794 27.9667 13.4864 27.9836 13.3904C28.0268 13.1861 27.9836 12.9742 27.8668 12.7936Z" fill="black"/>
<path d="M22.3598 19.5153C21.8113 19.5153 21.3661 19.9095 21.3661 20.3961V23.9224H15.9003V5.28535C15.9003 4.5269 15.4978 3.8539 14.6854 3.61385L8.92058 1.90008H21.3661V6.30189C21.3661 6.78815 21.8113 7.18278 22.3598 7.18278C22.9084 7.18278 23.3536 6.78815 23.3536 6.30189V1.01655C23.3536 0.530296 23.3551 0.1383 22.806 0.1383H2.99423L2.83274 0.0902913C2.62753 0.0295098 2.4879 0 2.27673 0C1.86481 0 1.31277 0.113635 0.96992 0.332536C0.451668 0.663751 0 1.19537 0 1.76178V22.7147C0 23.4727 0.692161 24.1461 1.50357 24.3861L13.5014 27.9097C13.7066 27.97 13.955 28 14.1657 28C14.5781 28 14.8589 27.8864 15.2012 27.667C15.7195 27.3358 15.9003 26.8042 15.9003 26.2382V25.6841H22.806C23.3546 25.6841 23.3536 25.2869 23.3536 24.8006V20.3961C23.3536 19.9095 22.9089 19.5153 22.3598 19.5153ZM13.9128 26.2382L1.98754 22.7147V1.90008V1.86529L2.09536 1.79526L13.9128 5.28535V26.2382Z" fill="black"/>
<path d="M11.9252 19.5153C12.2 19.5153 12.4221 19.3184 12.4221 19.0748V16.4321C12.4221 16.1886 12.2 15.9917 11.9252 15.9917C11.6505 15.9917 11.4284 16.1886 11.4284 16.4321V19.0748C11.4284 19.3184 11.6505 19.5153 11.9252 19.5153Z" fill="black"/>
</svg>
