<svg width="30" height="30" viewBox="0 0 30 30" fill="none" xmlns="http://www.w3.org/2000/svg">
<path d="M24.8 29H5.2C2.88041 29 1 27.2104 1 25.0027V13.7609C1 12.2238 1.69731 10.7615 2.91295 9.74946L12.2347 1.98867C13.8181 0.670437 16.1819 0.670451 17.7653 1.98867L27.087 9.74946C28.3027 10.7615 29 12.2238 29 13.7609V25.0027C29 27.2104 27.1197 29 24.8 29Z" stroke="#1E1E1E" stroke-width="2" stroke-linecap="round"/>
<path d="M8.6781 18.5362C9.24661 19.6743 10.1426 20.6355 11.2621 21.3086C12.3816 21.9814 13.6787 22.3384 15.0028 22.3379C16.3268 22.3373 17.6236 21.9794 18.7425 21.3058C19.8615 20.6319 20.7567 19.6699 21.3243 18.5315" stroke="#1E1E1E" stroke-width="2" stroke-linecap="round" stroke-linejoin="round"/>
</svg>
