<svg width="40" height="30" viewBox="0 0 40 30" fill="none" xmlns="http://www.w3.org/2000/svg">
<path d="M0.999298 0H39.0007C39.5526 0 40 0.443832 40 0.991418V29.0086C40 29.5562 39.5526 30 39.0007 30H0.999298C0.44736 30 0 29.5562 0 29.0086V0.991418C0 0.443832 0.44736 0 0.999298 0ZM8.0704 13.8419C8.0704 15.1465 6.07132 15.1465 6.07132 13.8419C6.07132 12.2813 6.80336 10.8134 8.04086 9.85894C7.96291 9.7499 7.89029 9.63702 7.82396 9.52078C7.51168 8.9708 7.334 8.33771 7.334 7.66524C7.334 5.5724 9.04403 3.87585 11.1535 3.87585C13.2625 3.87585 14.973 5.5724 14.973 7.66524C14.973 8.45251 14.7266 9.21865 14.2657 9.85894C15.5036 10.8134 16.2357 12.2813 16.2357 13.8419C16.2357 15.1465 14.2366 15.1465 14.2366 13.8419C14.2366 12.716 13.6271 11.6948 12.6321 11.1559C12.1678 11.3509 11.6575 11.4546 11.1535 11.4546C10.6495 11.4546 10.1387 11.3509 9.67441 11.1559C8.67995 11.6948 8.0704 12.716 8.0704 13.8419ZM5.40076 18.2605H16.9058C17.4577 18.2605 17.9055 18.7048 17.9055 19.2524V25.1323C17.9055 25.6798 17.4577 26.1242 16.9058 26.1242H5.40076C4.84882 26.1242 4.40146 25.6798 4.40146 25.1323V19.2524C4.40146 18.7048 4.84882 18.2605 5.40076 18.2605ZM15.9065 20.2439H6.40054V24.1408H15.9065V20.2439ZM11.1535 5.85916C10.1479 5.85916 9.33307 6.66757 9.33307 7.66524C9.33307 8.67827 10.1513 9.47131 11.1535 9.47131C12.1567 9.47131 12.9739 8.66962 12.9739 7.66524C12.9739 6.66757 12.1586 5.85916 11.1535 5.85916ZM20.0436 7.25791C18.7291 7.25791 18.7291 5.27459 20.0436 5.27459H34.5992C35.9137 5.27459 35.9137 7.25791 34.5992 7.25791H20.0436ZM22.3099 24.7254C20.9949 24.7254 20.9949 22.7416 22.3099 22.7416H34.5992C35.9137 22.7416 35.9137 24.7254 34.5992 24.7254H22.3099ZM20.0436 11.6247C18.7291 11.6247 18.7291 9.64135 20.0436 9.64135H34.5992C35.9137 9.64135 35.9137 11.6247 34.5992 11.6247H20.0436ZM22.3099 15.9914C20.9949 15.9914 20.9949 14.0081 22.3099 14.0081H34.5992C35.9137 14.0081 35.9137 15.9914 34.5992 15.9914H22.3099ZM22.3099 20.3587C20.9949 20.3587 20.9949 18.3749 22.3099 18.3749H34.5992C35.9137 18.3749 35.9137 20.3587 34.5992 20.3587H22.3099ZM38.0009 1.98332H1.99908V28.0167H38.0009V1.98332Z" fill="#1E1E1E"/>
</svg>
