<svg width="51" height="51" viewBox="0 0 51 51" fill="none" xmlns="http://www.w3.org/2000/svg">
<rect x="0.496826" y="0.994537" width="50" height="50" rx="25" fill="#1E1E1E"/>
<path d="M23.3928 18.6025C23.5528 18.8105 23.6328 19.0185 23.6328 19.2265C23.6488 19.3225 23.6488 19.4425 23.6328 19.5865C23.6328 19.7305 23.6248 19.8425 23.6088 19.9225C23.5608 20.0825 23.4488 20.2425 23.2728 20.4025C23.2248 20.4505 23.1688 20.4985 23.1048 20.5465C23.0408 20.5785 22.9608 20.6105 22.8648 20.6425C22.7688 20.6745 22.6728 20.6985 22.5768 20.7145C22.4808 20.7145 22.3768 20.7225 22.2648 20.7385C22.1528 20.7545 22.0488 20.7705 21.9528 20.7865C21.8568 20.7865 21.7528 20.7865 21.6408 20.7865H20.2728V21.1945C20.2568 22.6345 20.2808 24.0745 20.3448 25.5145C20.4248 26.9545 20.4168 28.3945 20.3208 29.8345C20.2728 30.3145 20.2008 30.8105 20.1048 31.3225C20.0088 31.8185 19.8488 32.2905 19.6248 32.7385C19.4168 33.1705 19.1368 33.5705 18.7848 33.9385C18.4328 34.3065 17.9848 34.5945 17.4408 34.8025C16.9288 34.9945 16.3688 35.1305 15.7608 35.2105C15.1528 35.2905 14.5368 35.2985 13.9128 35.2345C13.3048 35.1705 12.7208 35.0345 12.1608 34.8265C11.6008 34.6185 11.1288 34.3305 10.7448 33.9625C10.5368 33.7705 10.3448 33.5385 10.1688 33.2665C9.99283 32.9785 9.87283 32.6825 9.80883 32.3785C9.74483 32.0585 9.76083 31.7545 9.85683 31.4665C9.95283 31.1625 10.1768 30.9145 10.5288 30.7225C10.8328 30.5465 11.1048 30.5065 11.3448 30.6025C11.6008 30.6985 11.8408 30.8505 12.0648 31.0585C12.3048 31.2665 12.5448 31.4825 12.7848 31.7065C13.0408 31.9305 13.3208 32.0745 13.6248 32.1385C14.2808 32.2985 14.8168 32.3065 15.2328 32.1625C15.6488 32.0025 15.9768 31.7545 16.2168 31.4185C16.4568 31.0825 16.6248 30.6745 16.7208 30.1945C16.8328 29.7145 16.8968 29.2265 16.9128 28.7305C16.9448 28.2345 16.9528 27.7545 16.9368 27.2905C16.9208 26.8265 16.9208 26.4345 16.9368 26.1145C16.9528 25.2665 16.9528 24.4345 16.9368 23.6185C16.9208 22.8025 16.9128 21.9705 16.9128 21.1225V21.0265C16.9288 20.9945 16.9368 20.9465 16.9368 20.8825H16.8648C16.7688 20.8665 16.5688 20.8585 16.2648 20.8585C15.9608 20.8425 15.6328 20.8345 15.2808 20.8345C14.9288 20.8345 14.5928 20.8345 14.2728 20.8345C13.9688 20.8185 13.7688 20.8105 13.6728 20.8105H13.3368V20.7865C13.2088 20.7705 13.0808 20.7465 12.9528 20.7145C12.8248 20.6825 12.6968 20.6505 12.5688 20.6185C12.2648 20.5225 12.0328 20.3705 11.8728 20.1625C11.7928 20.0825 11.7288 19.9545 11.6808 19.7785C11.6488 19.6025 11.6328 19.4505 11.6328 19.3225C11.6328 19.2425 11.6328 19.1545 11.6328 19.0585C11.6328 18.9625 11.6488 18.8745 11.6808 18.7945C11.7128 18.6185 11.8248 18.4585 12.0168 18.3145C12.1448 18.2185 12.2968 18.1465 12.4728 18.0985C12.5848 18.0665 12.6968 18.0425 12.8088 18.0265C12.9208 18.0105 13.0408 17.9945 13.1688 17.9785C13.2808 17.9625 13.3928 17.9545 13.5048 17.9545C13.6168 17.9545 13.7368 17.9545 13.8648 17.9545H16.1688C16.2648 17.9545 16.3768 17.9545 16.5048 17.9545C16.6328 17.9545 16.7768 17.9465 16.9368 17.9305C17.5608 17.9305 18.1768 17.9305 18.7848 17.9305C19.3928 17.9305 19.9848 17.9385 20.5608 17.9545H20.7048C20.8808 17.9545 21.0488 17.9625 21.2088 17.9785C21.3848 17.9785 21.5608 17.9785 21.7368 17.9785C22.1048 17.9945 22.4488 18.0665 22.7688 18.1945C23.0248 18.2585 23.2328 18.3945 23.3928 18.6025Z" fill="white"/>
<path d="M38.1054 19.1785C38.1214 19.2905 38.1294 19.3945 38.1294 19.4905C38.1294 19.5865 38.1294 19.6825 38.1294 19.7785V20.7625L37.9854 33.2185V33.4585C37.9854 33.5545 37.9614 33.6985 37.9134 33.8905C37.8974 33.9705 37.8734 34.0585 37.8414 34.1545C37.8094 34.2345 37.7774 34.3225 37.7454 34.4185C37.6654 34.6105 37.5534 34.7545 37.4094 34.8505C37.2814 34.9785 37.0734 35.0665 36.7854 35.1145C36.3374 35.2105 35.9294 35.1705 35.5614 34.9945C35.3534 34.8665 35.2094 34.7065 35.1294 34.5145C35.0974 34.4825 35.0654 34.4345 35.0334 34.3705C35.0334 34.3385 35.0174 34.2905 34.9854 34.2265C34.9534 34.1465 34.9294 34.0665 34.9134 33.9865C34.8974 33.8905 34.8814 33.7945 34.8654 33.6985C34.8654 33.6185 34.8574 33.5385 34.8414 33.4585C34.8414 33.3785 34.8334 33.2985 34.8174 33.2185C34.7854 33.1385 34.7694 33.0745 34.7694 33.0265C34.7694 32.9625 34.7694 32.8905 34.7694 32.8105C34.8014 32.7465 34.8174 32.6265 34.8174 32.4505L34.8414 30.5545L34.8654 27.5305H33.5694L28.6974 27.5545L28.6494 33.2185V33.4585C28.6494 33.5545 28.6254 33.6985 28.5774 33.8905C28.5614 33.9705 28.5374 34.0585 28.5054 34.1545C28.4734 34.2345 28.4414 34.3225 28.4094 34.4185C28.3294 34.6105 28.2174 34.7545 28.0734 34.8505C27.9454 34.9785 27.7374 35.0665 27.4494 35.1145C27.0014 35.2105 26.5934 35.1705 26.2254 34.9945C26.0654 34.8985 25.9134 34.7385 25.7694 34.5145C25.7374 34.4505 25.7214 34.4025 25.7214 34.3705L25.6494 34.2265C25.6174 34.1465 25.5934 34.0665 25.5774 33.9865C25.5614 33.8905 25.5454 33.7945 25.5294 33.6985C25.5294 33.6185 25.5214 33.5385 25.5054 33.4585C25.4894 33.3785 25.4734 33.2985 25.4574 33.2185C25.4414 33.0905 25.4414 32.9545 25.4574 32.8105V32.4505L25.4814 30.5545L25.5294 27.0265C25.5454 26.5145 25.5534 25.9865 25.5534 25.4425C25.5534 24.8985 25.5534 24.3385 25.5534 23.7625C25.5374 23.1865 25.5294 22.6745 25.5294 22.2265C25.5454 21.7785 25.5694 21.2745 25.6014 20.7145V20.6185C25.6174 20.4585 25.6254 20.2985 25.6254 20.1385C25.6254 19.9625 25.6334 19.7865 25.6494 19.6105C25.6654 19.4505 25.6894 19.2985 25.7214 19.1545C25.7694 18.9945 25.8334 18.8345 25.9134 18.6745C25.9614 18.5465 26.0254 18.4425 26.1054 18.3625C26.1854 18.2665 26.2814 18.1785 26.3934 18.0985C26.6494 17.9705 26.9054 17.9065 27.1614 17.9065C27.2894 17.9065 27.4014 17.9145 27.4974 17.9305C27.5934 17.9305 27.6894 17.9385 27.7854 17.9545C27.9774 17.9705 28.1614 18.0665 28.3374 18.2425C28.4654 18.3545 28.5534 18.4825 28.6014 18.6265C28.6814 18.8345 28.7294 19.0185 28.7454 19.1785C28.7614 19.2905 28.7694 19.3945 28.7694 19.4905C28.7694 19.5865 28.7694 19.6825 28.7694 19.7785V20.7625L28.7214 24.7225C28.8494 24.7225 28.9934 24.7225 29.1534 24.7225C29.3294 24.7225 29.5294 24.7145 29.7534 24.6985C30.5854 24.6985 31.4094 24.7065 32.2254 24.7225C33.0574 24.7385 33.9294 24.7465 34.8414 24.7465H34.8654C34.8654 24.0265 34.8654 23.3385 34.8654 22.6825C34.8814 22.0265 34.9054 21.3385 34.9374 20.6185C34.9374 20.4585 34.9374 20.2985 34.9374 20.1385C34.9534 19.9625 34.9694 19.7865 34.9854 19.6105C35.0014 19.4505 35.0254 19.2985 35.0574 19.1545C35.1054 18.9945 35.1694 18.8345 35.2494 18.6745C35.2814 18.5465 35.3374 18.4425 35.4174 18.3625C35.5134 18.2665 35.6254 18.1785 35.7534 18.0985C35.9774 17.9705 36.2254 17.9065 36.4974 17.9065C36.6254 17.9065 36.7374 17.9145 36.8334 17.9305C36.9454 17.9305 37.0414 17.9385 37.1214 17.9545C37.3454 17.9865 37.5294 18.0825 37.6734 18.2425C37.8014 18.3225 37.8894 18.4505 37.9374 18.6265C37.9694 18.7225 37.9934 18.8185 38.0094 18.9145C38.0414 18.9945 38.0734 19.0825 38.1054 19.1785Z" fill="#D3F261"/>
</svg>
