<svg width="50" height="50" viewBox="0 0 50 50" fill="none" xmlns="http://www.w3.org/2000/svg">
<rect width="50" height="50" rx="25" fill="#1E1E1E"/>
<path d="M31.064 20.328C31.16 21.096 31.216 21.992 31.232 23.016C31.248 24.024 31.232 25.048 31.184 26.088C31.152 27.112 31.08 28.088 30.968 29.016C30.856 29.928 30.72 30.664 30.56 31.224C30.448 31.56 30.312 31.912 30.152 32.28C30.008 32.632 29.848 32.952 29.672 33.24C29.416 33.672 29.104 34.056 28.736 34.392C28.368 34.712 27.96 34.992 27.512 35.232C27.08 35.456 26.616 35.632 26.12 35.76C25.64 35.888 25.16 35.96 24.68 35.976C23.832 36.008 23.024 35.888 22.256 35.616C21.504 35.328 20.808 34.88 20.168 34.272C19.688 33.808 19.304 33.312 19.016 32.784C18.728 32.256 18.504 31.704 18.344 31.128C18.184 30.536 18.08 29.928 18.032 29.304C18 28.68 17.984 28.04 17.984 27.384C17.984 27.08 17.976 26.704 17.96 26.256C17.96 25.792 17.96 25.32 17.96 24.84C17.96 24.344 17.96 23.864 17.96 23.4C17.96 22.936 17.968 22.544 17.984 22.224C17.984 22.016 17.984 21.792 17.984 21.552C17.984 21.296 17.992 21.048 18.008 20.808C18.04 20.552 18.088 20.312 18.152 20.088C18.216 19.848 18.312 19.632 18.44 19.44C18.584 19.232 18.784 19.08 19.04 18.984C19.296 18.888 19.56 18.84 19.832 18.84C20.12 18.84 20.392 18.896 20.648 19.008C20.904 19.12 21.112 19.28 21.272 19.488C21.352 19.616 21.408 19.744 21.44 19.872C21.472 20 21.496 20.144 21.512 20.304C21.544 20.832 21.56 21.432 21.56 22.104C21.576 22.776 21.576 23.432 21.56 24.072C21.56 24.696 21.552 25.272 21.536 25.8C21.52 26.328 21.512 26.72 21.512 26.976C21.512 27.936 21.56 28.808 21.656 29.592C21.752 30.36 21.976 31 22.328 31.512C22.648 31.976 23.024 32.272 23.456 32.4C23.888 32.528 24.32 32.568 24.752 32.52C25.152 32.472 25.552 32.328 25.952 32.088C26.368 31.832 26.696 31.464 26.936 30.984C27.032 30.808 27.112 30.608 27.176 30.384C27.24 30.16 27.288 29.952 27.32 29.76C27.384 29.152 27.44 28.448 27.488 27.648C27.536 26.832 27.576 26 27.608 25.152C27.64 24.304 27.656 23.472 27.656 22.656C27.656 21.84 27.648 21.104 27.632 20.448C27.664 20.16 27.752 19.896 27.896 19.656C28.024 19.448 28.208 19.264 28.448 19.104C28.688 18.944 29.016 18.864 29.432 18.864C29.768 18.88 30.04 18.968 30.248 19.128C30.456 19.272 30.624 19.432 30.752 19.608C30.896 19.816 31 20.056 31.064 20.328Z" fill="white"/>
</svg>
